<svg width="272" height="272" viewBox="0 0 272 272" fill="none" xmlns="http://www.w3.org/2000/svg">
<rect x="138.5" y="2.5" width="131" height="131" rx="7.5" fill="black" stroke="black" stroke-width="5"/>
<rect x="2.5" y="138.5" width="131" height="131" rx="7.5" fill="black" stroke="black" stroke-width="5"/>
<g filter="url(#filter0_f_206_104)">
<path d="M233.572 107.118C232.741 107.118 231.91 107.534 231.494 108.365C231.079 109.197 231.494 111.803 235.234 111.273C240.221 110.442 243.961 105.871 243.961 100.884C243.961 95.0658 239.39 90.4941 233.572 90.4941H214.87V65.5588H233.572C234.818 65.5588 235.65 64.7274 235.65 63.4807V46.8572C235.65 45.6105 234.818 44.7791 233.572 44.7791H214.87V26.0776C214.87 25.2468 214.87 24.4154 214.455 24.4154C214.039 24.4154 213.208 24 212.793 24H196.169C194.922 24 194.091 24.8313 194.091 26.0781V44.7796H175.39C174.143 44.7796 173.311 45.611 173.311 46.8577V63.4821C173.311 64.7289 174.143 65.5602 175.39 65.5602H194.091V90.4956H175.39C169.572 90.4956 165 95.0667 165 100.885C165 106.703 169.571 111.275 175.39 111.275H216.948C218.195 111.275 219.026 110.443 219.026 109.197C219.026 107.95 218.195 107.118 216.948 107.118H175.39C172.065 107.118 169.156 104.21 169.156 100.885C169.156 97.5598 172.065 94.6508 175.39 94.6508H196.169C197.416 94.6508 198.247 93.8195 198.247 92.5727V63.4821C198.247 62.2353 197.416 61.404 196.169 61.404H177.468V48.9363H196.169C197.416 48.9363 198.247 48.105 198.247 46.8582V28.1567H210.715V46.8582C210.715 48.1074 211.412 48.9358 212.793 48.9358H231.494V61.4035H212.793C211.546 61.4035 210.714 62.2349 210.714 63.4816V92.5727C210.714 93.8195 211.546 94.6508 212.793 94.6508H233.572C236.897 94.6508 239.806 97.5598 239.806 100.885C239.806 104.21 236.897 107.118 233.572 107.118Z" fill="#F2D09C"/>
</g>
<path d="M233.572 107.118C232.741 107.118 231.91 107.534 231.494 108.365C231.079 109.197 231.494 111.803 235.234 111.273C240.221 110.442 243.961 105.871 243.961 100.884C243.961 95.0658 239.39 90.4941 233.572 90.4941H214.87V65.5588H233.572C234.818 65.5588 235.65 64.7274 235.65 63.4807V46.8572C235.65 45.6105 234.818 44.7791 233.572 44.7791H214.87V26.0776C214.87 25.2468 214.87 24.4154 214.455 24.4154C214.039 24.4154 213.208 24 212.793 24H196.169C194.922 24 194.091 24.8313 194.091 26.0781V44.7796H175.39C174.143 44.7796 173.311 45.611 173.311 46.8577V63.4821C173.311 64.7289 174.143 65.5602 175.39 65.5602H194.091V90.4956H175.39C169.572 90.4956 165 95.0667 165 100.885C165 106.703 169.571 111.275 175.39 111.275H216.948C218.195 111.275 219.026 110.443 219.026 109.197C219.026 107.95 218.195 107.118 216.948 107.118H175.39C172.065 107.118 169.156 104.21 169.156 100.885C169.156 97.5598 172.065 94.6508 175.39 94.6508H196.169C197.416 94.6508 198.247 93.8195 198.247 92.5727V63.4821C198.247 62.2353 197.416 61.404 196.169 61.404H177.468V48.9363H196.169C197.416 48.9363 198.247 48.105 198.247 46.8582V28.1567H210.715V46.8582C210.715 48.1074 211.412 48.9358 212.793 48.9358H231.494V61.4035H212.793C211.546 61.4035 210.714 62.2349 210.714 63.4816V92.5727C210.714 93.8195 211.546 94.6508 212.793 94.6508H233.572C236.897 94.6508 239.806 97.5598 239.806 100.885C239.806 104.21 236.897 107.118 233.572 107.118Z" fill="#F2D09C"/>
<g filter="url(#filter1_f_206_104)">
<path d="M82.0524 192.068C82.4685 192.896 83.2998 193.725 84.1316 193.725L84.5477 193.725C85.7951 193.311 86.6263 192.482 86.2107 191.24C84.5477 184.612 79.142 179.227 72.4895 177.57C71.2421 177.57 70.4104 177.984 69.9948 179.227C69.9948 180.47 70.4104 181.298 71.6578 181.712C76.6473 182.955 80.8051 187.097 82.0524 192.068Z" fill="#F2D09C"/>
<path fill-rule="evenodd" clip-rule="evenodd" d="M98.2684 247.988C98.2684 247.988 94.341 248.377 94.9423 244.675C95.1153 243.847 96.6054 243.847 96.6054 243.847C99.9319 243.847 102.842 240.948 102.842 237.634C102.842 234.32 99.9319 231.42 96.6054 231.42H38.3947C35.0682 231.42 32.1578 234.32 32.1578 237.634C32.1578 240.948 35.0682 243.847 38.3947 243.847H79.9738C81.2212 243.847 82.0529 244.676 82.0529 245.918C82.0529 247.161 81.2212 247.99 79.9738 247.99H38.3947C32.5734 247.99 28 243.433 28 237.634C28 231.835 32.5739 227.278 38.3947 227.278H50.8684C39.642 221.479 32.1578 209.467 32.1578 196.211C32.1578 176.741 47.9581 161 67.5 161C87.0419 161 102.842 176.741 102.842 196.21C102.842 209.465 95.358 221.478 84.1316 227.277H96.6054C102.427 227.277 107 231.834 107 237.633C107 242.603 103.258 247.16 98.2684 247.988ZM36.7312 195.796C36.7312 178.812 50.868 164.728 67.9156 164.728C84.9633 164.728 99.1001 178.812 99.1001 195.796C99.1001 212.779 84.9633 226.863 67.9156 226.863C50.868 226.863 36.7312 212.779 36.7312 195.796Z" fill="#F2D09C"/>
</g>
<path d="M82.0524 192.068C82.4685 192.896 83.2998 193.725 84.1316 193.725L84.5477 193.725C85.7951 193.311 86.6263 192.482 86.2107 191.24C84.5477 184.612 79.142 179.227 72.4895 177.57C71.2421 177.57 70.4104 177.984 69.9948 179.227C69.9948 180.47 70.4104 181.298 71.6578 181.712C76.6473 182.955 80.8051 187.097 82.0524 192.068Z" fill="#F2D09C"/>
<path fill-rule="evenodd" clip-rule="evenodd" d="M98.2684 247.988C98.2684 247.988 94.341 248.377 94.9423 244.675C95.1153 243.847 96.6054 243.847 96.6054 243.847C99.9319 243.847 102.842 240.948 102.842 237.634C102.842 234.32 99.9319 231.42 96.6054 231.42H38.3947C35.0682 231.42 32.1578 234.32 32.1578 237.634C32.1578 240.948 35.0682 243.847 38.3947 243.847H79.9738C81.2212 243.847 82.0529 244.676 82.0529 245.918C82.0529 247.161 81.2212 247.99 79.9738 247.99H38.3947C32.5734 247.99 28 243.433 28 237.634C28 231.835 32.5739 227.278 38.3947 227.278H50.8684C39.642 221.479 32.1578 209.467 32.1578 196.211C32.1578 176.741 47.9581 161 67.5 161C87.0419 161 102.842 176.741 102.842 196.21C102.842 209.465 95.358 221.478 84.1316 227.277H96.6054C102.427 227.277 107 231.834 107 237.633C107 242.603 103.258 247.16 98.2684 247.988ZM36.7312 195.796C36.7312 178.812 50.868 164.728 67.9156 164.728C84.9633 164.728 99.1001 178.812 99.1001 195.796C99.1001 212.779 84.9633 226.863 67.9156 226.863C50.868 226.863 36.7312 212.779 36.7312 195.796Z" fill="#F2D09C"/>
<defs>
<filter id="filter0_f_206_104" x="155" y="14" width="98.9613" height="107.344" filterUnits="userSpaceOnUse" color-interpolation-filters="sRGB">
<feFlood flood-opacity="0" result="BackgroundImageFix"/>
<feBlend mode="normal" in="SourceGraphic" in2="BackgroundImageFix" result="shape"/>
<feGaussianBlur stdDeviation="5" result="effect1_foregroundBlur_206_104"/>
</filter>
<filter id="filter1_f_206_104" x="18" y="151" width="99" height="107" filterUnits="userSpaceOnUse" color-interpolation-filters="sRGB">
<feFlood flood-opacity="0" result="BackgroundImageFix"/>
<feBlend mode="normal" in="SourceGraphic" in2="BackgroundImageFix" result="shape"/>
<feGaussianBlur stdDeviation="5" result="effect1_foregroundBlur_206_104"/>
</filter>
</defs>
</svg>
